# xmcd
#
# Track frame offsets:
#   150
#   6866
#   22067
#   34476
#   49278
#   62595
#   76312
#   89958
#   103814
#   116333
#   130862
#   151310
#   167618
#   183277
#   200567
#   216662
#   235319
#   252224
#   265568
#   278144
#
# Disc length: 3891 seconds
#
# Revision: 0
# Processed by: cddbd v1.4PL0 Copyright (c) Steve Scherf et al.
# Submitted via: uFREEDB ActiveX Control 1.5
#
DISCID=210f3114
DTITLE=Luis Goiano  - Só Moda de Viola
DYEAR=1900
DGENRE=Country
TTITLE0=Chora Viola
TTITLE1=Soberano
TTITLE2=Outro Homem
TTITLE3=Rio Ivinhema
TTITLE4=Goianinho
TTITLE5=Martírio Absurdo
TTITLE6=Araçatuba
TTITLE7=Rio Pequeno
TTITLE8=Casa do João de Barro
TTITLE9=Sua Terra
TTITLE10=Baianinho
TTITLE11=Ferreirinha
TTITLE12=Sertão de Mato Grosso
TTITLE13=Mês de Outubro
TTITLE14=Solidão do Meu Peito
TTITLE15=Filho de Deus
TTITLE16=Boiadeiro de Palavra
TTITLE17=Bailinho do Velho Matão
TTITLE18=Tempos Primeiros
TTITLE19=Chora viola 2
EXTD=
EXTT0=
EXTT1=
EXTT2=
EXTT3=
EXTT4=
EXTT5=
EXTT6=
EXTT7=
EXTT8=
EXTT9=
EXTT10=
EXTT11=
EXTT12=
EXTT13=
EXTT14=
EXTT15=
EXTT16=
EXTT17=
EXTT18=
EXTT19=
PLAYORDER=
